<svg xmlns="http://www.w3.org/2000/svg" width="201.426" height="51.472" viewBox="0 0 201.426 51.472">
  <g id="그룹_1" data-name="그룹 1" transform="translate(-366.579 -194.628)">
    <path id="패스_1" data-name="패스 1" d="M402.064,241.99l-13.519-23.415h2.869l13.519,23.415Z" transform="translate(3.769 4.109)" fill="#5ecce5"/>
    <path id="패스_2" data-name="패스 2" d="M496.143,203.018a15.906,15.906,0,1,0,15.906,15.905A15.905,15.905,0,0,0,496.143,203.018Zm0,27.17a11.264,11.264,0,1,1,11.265-11.265A11.265,11.265,0,0,1,496.143,230.188Z" transform="translate(19.503 1.44)" fill="#11214a"/>
    <path id="패스_3" data-name="패스 3" d="M433.915,203.018a15.906,15.906,0,1,0,15.905,15.905A15.905,15.905,0,0,0,433.915,203.018Zm0,27.17a11.264,11.264,0,1,1,11.265-11.265A11.265,11.265,0,0,1,433.915,230.188Z" transform="translate(8.825 1.44)" fill="#11214a"/>
    <path id="패스_4" data-name="패스 4" d="M527.257,203.018a15.906,15.906,0,1,0,15.906,15.905A15.905,15.905,0,0,0,527.257,203.018Zm0,27.17a11.264,11.264,0,1,1,11.265-11.265A11.265,11.265,0,0,1,527.257,230.188Z" transform="translate(24.842 1.44)" fill="#11214a"/>
    <path id="사각형_2" data-name="사각형 2" d="M0,0H4.641a0,0,0,0,1,0,0V25.3a.44.44,0,0,1-.44.44H.438A.438.438,0,0,1,0,25.3V0A0,0,0,0,1,0,0Z" transform="translate(426.835 220.364)" fill="#11214a"/>
    <path id="패스_5" data-name="패스 5" d="M478.022,209.755a15.889,15.889,0,1,0,2.913,9.169A15.881,15.881,0,0,0,478.022,209.755ZM465.03,230.188a11.264,11.264,0,1,1,11.265-11.265A11.265,11.265,0,0,1,465.03,230.188Z" transform="translate(14.164 1.44)" fill="#11214a"/>
    <path id="사각형_3" data-name="사각형 3" d="M0,0H4.641a0,0,0,0,1,0,0V15.466a.44.44,0,0,1-.44.44H.44a.44.44,0,0,1-.44-.44V0A0,0,0,0,1,0,0Z" transform="translate(490.458 220.364)" fill="#11214a"/>
    <path id="사각형_4" data-name="사각형 4" d="M0,0H4.641a0,0,0,0,1,0,0V15.466a.44.44,0,0,1-.44.44H.44a.44.44,0,0,1-.44-.44V0A0,0,0,0,1,0,0Z" transform="translate(526.911 220.364)" fill="#11214a"/>
    <path id="사각형_5" data-name="사각형 5" d="M.44,0H4.2a.44.44,0,0,1,.44.44V25.718a0,0,0,0,1,0,0H0a0,0,0,0,1,0,0V.44A.44.44,0,0,1,.44,0Z" transform="translate(563.364 194.646)" fill="#11214a"/>
    <path id="패스_6" data-name="패스 6" d="M392.314,194.628a25.736,25.736,0,1,0,25.736,25.735A25.736,25.736,0,0,0,392.314,194.628Zm0,43.962a18.226,18.226,0,1,1,18.226-18.226A18.226,18.226,0,0,1,392.314,238.59Z" transform="translate(0 0)" fill="#11214a"/>
    <path id="패스_7" data-name="패스 7" d="M413.8,241.99l-13.519-23.415h-9.283l13.519,23.415Z" transform="translate(4.189 4.109)" fill="#06f"/>
  </g>
</svg>
